<svg width="128" height="128" viewBox="0 0 128 128" fill="none" xmlns="http://www.w3.org/2000/svg">
  <rect width="128" height="128" rx="28" fill="#ffffff" />

  <g transform="translate(64, 64) rotate(45) translate(-64, -64)">
    <path d="M42 80L34 94H54L54 80H42Z" fill="#4f46e5" />
    <path d="M86 80L94 94H74L74 80H86Z" fill="#4f46e5" />

    <path
      d="M64 16C50.7452 16 40 26.7452 40 40V82C40 85.3137 42.6863 88 46 88H82C85.3137 88 88 85.3137 88 82V40C88 26.7452 77.2548 16 64 16Z"
      fill="#4f46e5" />

    <path d="M58 96H70L64 108L58 96Z" fill="#6366f1" />

    <circle cx="64" cy="48" r="10" fill="#f8fafc" />
  </g>
</svg>